<?xml version="1.0" standalone="no"?>
<!DOCTYPE svg PUBLIC "-//W3C//DTD SVG 20010904//EN"
 "http://www.w3.org/TR/2001/REC-SVG-20010904/DTD/svg10.dtd">
<svg version="1.0" xmlns="http://www.w3.org/2000/svg"
 width="1024.000000pt" height="1024.000000pt" viewBox="0 0 1024.000000 1024.000000"
 preserveAspectRatio="xMidYMid meet">
<metadata>
Created by potrace 1.11, written by Peter Selinger 2001-2013
</metadata>
<g transform="translate(0.000000,1024.000000) scale(0.100000,-0.100000)"
fill="#000000" stroke="none">
<path d="M995 10113 c-414 -54 -733 -329 -842 -728 l-28 -100 0 -4165 0 -4165
28 -100 c98 -359 368 -620 734 -712 63 -16 349 -17 4188 -20 4560 -4 4221 -9
4406 61 139 52 240 118 349 226 108 109 174 210 226 349 70 185 65 -154 62
4406 l-3 4120 -28 100 c-98 359 -368 620 -734 712 -63 16 -346 17 -4198 19
-2271 0 -4143 -1 -4160 -3z m4545 -1498 c542 -76 1076 -284 1527 -593 823
-567 1398 -1417 1583 -2342 64 -320 65 -331 65 -1460 0 -968 -1 -1027 -18
-1058 -36 -66 -58 -72 -281 -72 -184 0 -201 2 -233 21 -73 45 -67 -36 -74
1144 -4 922 -7 1072 -21 1155 -96 552 -322 998 -703 1388 -297 306 -594 511
-968 672 -390 167 -785 254 -1212 267 -559 16 -1072 -97 -1566 -348 -589 -299
-1024 -731 -1290 -1284 -102 -212 -163 -404 -211 -660 -22 -118 -22 -137 -28
-1185 -5 -1001 -6 -1067 -23 -1098 -36 -66 -58 -72 -281 -72 -184 0 -201 2
-233 21 -73 45 -68 -34 -68 1109 0 921 2 1040 18 1175 111 929 580 1769 1347
2411 541 452 1208 742 1890 819 166 19 619 13 780 -10z m-2217 -4339 c40 -16
85 -67 93 -104 3 -15 18 -76 34 -137 89 -335 140 -988 111 -1415 -30 -447
-119 -920 -186 -990 -46 -48 -90 -52 -517 -48 l-388 3 -26 26 c-21 21 -28 41
-35 105 -6 47 -9 567 -7 1279 3 1133 4 1202 21 1236 10 20 28 41 40 47 36 17
819 16 860 -2z m4436 0 c59 -31 56 39 59 -1291 2 -774 -1 -1244 -7 -1284 -8
-48 -17 -72 -36 -90 l-25 -26 -388 -3 c-439 -4 -474 0 -521 53 -16 18 -32 48
-36 67 -4 18 -20 80 -36 138 -29 107 -64 325 -96 595 -21 186 -25 784 -5 965
20 188 62 469 83 555 59 251 78 291 144 321 45 20 824 20 864 0z"/>
</g>
</svg>
